<svg xmlns="http://www.w3.org/2000/svg" viewBox="0 0 920 180" width="920" height="180" shape-rendering="crispEdges">
  <rect width="920" height="180" fill="#1f2637"/>

  <rect x="42" y="20" width="80" height="12" fill="#15202c"/>
  <rect x="56" y="10" width="50" height="10" fill="#15202c"/>
  <rect x="48" y="22" width="68" height="10" fill="#e38c61"/>
  <rect x="36" y="34" width="92" height="12" fill="#d57450"/>
  <rect x="18" y="60" width="146" height="10" fill="#15202c"/>
  <rect x="8" y="72" width="166" height="12" fill="#d7c566"/>
  <rect x="24" y="86" width="130" height="12" fill="#c8b861"/>

  <path d="M214 148 L372 42 L528 148 Z" fill="#15202c"/>
  <path d="M230 144 L372 58 L514 144 Z" fill="#4b6781"/>
  <path d="M258 128 L372 72 L486 128 Z" fill="#6c91b5"/>
  <path d="M294 110 L372 76 L450 110 Z" fill="#8fb9dc"/>
  <path d="M338 84 L372 62 L406 84 Z" fill="#ffffff"/>
  <rect x="318" y="88" width="18" height="10" fill="#e4f5ff"/>
  <rect x="408" y="88" width="18" height="10" fill="#e4f5ff"/>
  <rect x="270" y="144" width="96" height="8" fill="#15202c"/>
  <rect x="382" y="144" width="92" height="8" fill="#15202c"/>

  <rect x="664" y="74" width="42" height="10" fill="#9fe59d"/>
  <rect x="648" y="86" width="74" height="12" fill="#7fc479"/>
  <rect x="634" y="100" width="90" height="14" fill="#6fb16b"/>
  <rect x="648" y="114" width="62" height="12" fill="#90d88d"/>
  <rect x="680" y="114" width="14" height="28" fill="#6e5035"/>
  <rect x="670" y="104" width="10" height="18" fill="#8b6545"/>
  <rect x="694" y="96" width="10" height="18" fill="#8b6545"/>
  <rect x="656" y="142" width="50" height="8" fill="#d6bf69"/>

  <rect x="0" y="142" width="920" height="10" fill="#2a435d"/>
  <rect x="0" y="152" width="920" height="12" fill="#9beaf0"/>
  <rect x="0" y="164" width="920" height="10" fill="#79cbe0"/>
  <rect x="0" y="174" width="920" height="6" fill="#4f7ea7"/>
  <rect x="52" y="146" width="24" height="6" fill="#ffffff"/>
  <rect x="92" y="152" width="18" height="6" fill="#f3ffff"/>
  <rect x="146" y="146" width="22" height="6" fill="#ffffff"/>
  <rect x="222" y="152" width="20" height="6" fill="#ffffff"/>
  <rect x="446" y="148" width="20" height="6" fill="#ffffff"/>
</svg>
